<mxfile host="app.diagrams.net" modified="2023-09-21T03:54:27.392Z" agent="Mozilla/5.0 (Macintosh; Intel Mac OS X 10_15_7) AppleWebKit/537.36 (KHTML, like Gecko) Chrome/114.0.0.0 Safari/537.36" version="21.6.9" etag="11AYoD21SPkbmzBLR0RB" type="github">
  <diagram name="Page-1" id="62zUu4GN7AXhwBrHjjKA">
    <mxGraphModel>
      <root>
        <mxCell id="0" />
        <mxCell id="1" parent="0" />
      </root>
    </mxGraphModel>
  </diagram>
</mxfile>
